#!OML:ASF F:\VICON\USERDATA\INSTALL\rory3\rory3.ASF
:FULLY-SPECIFIED
:DEGREES
55
root 2.19683 18.3974 45.3187 -4.95947 10.1466 -1.74012
lowerback 17.368 -2.41638 -5.67998
upperback -3.89667 -4.169 2.82729
thorax -13.5765 -1.30536 7.6194
lowerneck -6.20699 -6.3473 -4.68935
upperneck 25.6368 -9.33103 4.1487
head 9.50823 -4.40039 1.27106
rclavicle -4.96962e-016 -7.55382e-015
rhumerus -57.5734 -82.1859 18.5916
rradius 37.2864
rwrist -59.753
rhand -15.2623 2.79387
rfingers 7.12502
rthumb 10.9117 -26.9026
lclavicle -4.96962e-016 -7.55382e-015
lhumerus -52.3099 9.76056 68.4851
lradius 47.3745
lwrist 9.59923
lhand -6.82523 53.4814
lfingers 7.12502
lthumb 19.0389 82.5696
rfemur -3.32228 -0.187515 20.4197
rtibia 28.3362
rfoot -18.0822 -20.4787
rtoes 10.89
lfemur -4.01277 -9.32151 -18.6273
ltibia 26.1605
lfoot -13.1572 4.1685
ltoes -15.1329
56
root 2.18653 18.3992 45.3105 -4.87731 9.95001 -1.8166
lowerback 17.1215 -2.34488 -5.73252
upperback -4.01006 -4.06657 2.8918
thorax -13.5714 -1.24815 7.68282
lowerneck -5.25721 -6.11632 -4.71152
upperneck 25.3739 -9.04714 4.27421
head 9.22835 -4.27983 1.38453
rclavicle 2.45748e-014 -3.29983e-014
rhumerus -61.054 -82.5104 22.161
rradius 37.2618
rwrist -58.8712
rhand -13.2866 -1.37755
rfingers 7.12502
rthumb 12.8169 -30.9641
lclavicle 2.45748e-014 -3.29983e-014
lhumerus -52.6406 9.55677 68.5221
lradius 47.4214
lwrist 9.80167
lhand -7.03869 53.4161
lfingers 7.12502
lthumb 18.8336 82.5243
rfemur -3.51534 0.107863 20.598
rtibia 28.423
rfoot -18.2709 -20.5154
rtoes 11.9259
lfemur -4.20512 -9.19399 -18.4644
ltibia 26.2396
lfoot -13.1009 4.22486
ltoes -15.7212
57
root 2.18805 18.3984 45.2925 -4.80981 9.94195 -1.88404
lowerback 17.0162 -2.38581 -5.48598
upperback -3.93472 -4.06357 2.85305
thorax -13.4374 -1.28018 7.48122
lowerneck -5.47943 -5.97295 -4.5822
upperneck 25.5171 -8.86901 4.30202
head 9.30559 -4.17502 1.38314
rclavicle 1.91579e-014 -1.43125e-014
rhumerus -49.9935 -80.4946 10.4833
rradius 37.8355
rwrist -61.5178
rhand -14.2204 0.428787
rfingers 7.12502
rthumb 11.9165 -29.2121
lclavicle 1.91579e-014 -1.43125e-014
lhumerus -52.4698 9.60217 68.4618
lradius 47.3597
lwrist 9.65744
lhand -7.01441 53.6452
lfingers 7.12502
lthumb 18.857 82.7512
rfemur -3.70997 -0.184097 20.5983
rtibia 28.5513
rfoot -18.1793 -20.2221
rtoes 11.9638
lfemur -4.38167 -9.10695 -18.3719
ltibia 26.3146
lfoot -13 4.13832
ltoes -15.8618
58
root 2.18277 18.3954 45.2804 -4.81973 9.86717 -1.84201
lowerback 17.0073 -2.36017 -5.52544
upperback -3.80576 -4.03454 2.85175
thorax -13.2832 -1.27622 7.48486
lowerneck -6.11669 -5.83386 -4.3758
upperneck 25.9211 -8.66888 4.15996
head 9.54168 -4.05814 1.29819
rclavicle -4.52484e-014 1.39149e-014
rhumerus -50.4897 -80.8803 10.7855
rradius 38.0799
rwrist -61.378
rhand -12.9291 -3.59281
rfingers 7.12502
rthumb 13.1615 -33.1574
lclavicle -4.52484e-014 1.39149e-014
lhumerus -52.2301 9.7372 68.4717
lradius 47.3454
lwrist 9.46606
lhand -6.79825 53.9739
lfingers 7.12502
lthumb 19.0648 83.0596
rfemur -3.8328 -0.181914 20.5545
rtibia 28.6588
rfoot -17.9518 -20.2274
rtoes 11.2319
lfemur -4.39327 -9.11573 -18.4081
ltibia 26.3306
lfoot -13.0846 4.20824
ltoes -15.5569
59
root 2.17209 18.3938 45.2649 -4.86634 9.68946 -1.74074
lowerback 17.1684 -2.26887 -5.69477
upperback -3.78236 -3.95742 2.85264
thorax -13.3554 -1.22186 7.57566
lowerneck -6.02726 -5.66501 -4.11861
upperneck 25.9523 -8.41514 3.9391
head 9.50014 -3.93923 1.21038
rclavicle -4.87022e-014 -1.78906e-014
rhumerus -53.8919 -81.657 14.132
rradius 38.2425
rwrist -60.6864
rhand -12.4646 -2.90936
rfingers 7.12502
rthumb 13.6093 -32.4445
lclavicle -4.87022e-014 -1.78906e-014
lhumerus -52.256 9.80432 68.4504
lradius 47.4142
lwrist 9.29441
lhand -6.78061 53.8072
lfingers 7.12502
lthumb 19.0818 82.8912
rfemur -3.98486 0.144488 20.5235
rtibia 28.8367
rfoot -17.9948 -20.367
rtoes 11.2824
lfemur -4.34995 -9.07856 -18.4825
ltibia 26.3042
lfoot -13.052 4.33619
ltoes -15.5617
60
root 2.15987 18.3983 45.2478 -4.73361 9.51229 -1.8128
lowerback 16.9665 -2.21209 -5.6585
upperback -3.58034 -3.85283 2.89086
thorax -13.015 -1.20089 7.53993
lowerneck -6.29166 -5.5351 -3.87456
upperneck 25.8172 -8.21798 3.8139
head 9.47521 -3.83295 1.14083
rclavicle 3.57315e-014 -1.98785e-015
rhumerus -61.9659 -83.2242 22.1745
rradius 38.2159
rwrist -59.2414
rhand -12.761 -2.78104
rfingers 7.12502
rthumb 13.3236 -32.3351
lclavicle 3.57315e-014 -1.98785e-015
lhumerus -51.7712 9.98963 68.4915
lradius 47.369
lwrist 9.12945
lhand -6.63182 53.9312
lfingers 7.12502
lthumb 19.2249 83.001
rfemur -4.40508 0.488405 20.7069
rtibia 29.102
rfoot -18.1355 -20.5675
rtoes 11.6598
lfemur -4.52379 -8.94308 -18.3025
ltibia 26.2161
lfoot -12.9432 4.33706
ltoes -15.541
61
root 2.1489 18.3872 45.2293 -4.75389 9.36475 -1.76288
lowerback 16.9185 -2.15267 -5.72537
upperback -3.21651 -3.77608 2.89656
thorax -12.5718 -1.19593 7.5365
lowerneck -7.27102 -5.46617 -3.87954
upperneck 26.0858 -8.12792 3.90284
head 9.75754 -3.75925 1.1499
rclavicle 4.57702e-014 -7.95139e-015
rhumerus -73.8386 -84.7523 33.9675
rradius 38.1071
rwrist -57.57
rhand -12.5813 -4.14152
rfingers 7.12502
rthumb 13.4968 -33.6842
lclavicle 4.57702e-014 -7.95139e-015
lhumerus -51.1221 10.2238 68.6014
lradius 47.3516
lwrist 9.11633
lhand -6.63298 53.7814
lfingers 7.12502
lthumb 19.2238 82.8513
rfemur -4.55362 0.767727 20.7257
rtibia 29.2013
rfoot -18.1802 -20.6812
rtoes 11.8572
lfemur -4.48514 -8.802 -18.3273
ltibia 26.2398
lfoot -12.9513 4.5415
ltoes -17.2867
